<?xml version="1.0" encoding="UTF-8"?>
<svg width="1200pt" height="1200pt" version="1.1" viewBox="0 0 1200 1200" xmlns="http://www.w3.org/2000/svg">
 <path d="m757.2 612-207.6 207.6-106.8-106.8c-18-18-46.801-18-64.801 0s-18 46.801 0 64.801l139.2 139.2c8.3984 8.3984 20.398 13.199 32.398 13.199s24-4.8008 32.398-13.199l240-240c18-18 18-46.801 0-64.801-17.996-18-46.797-18-64.797 0z" fill="#18394a"/>
 <path d="m1056 129.6h-170.4v-43.203c0-25.199-20.398-45.602-45.602-45.602-25.199 0-45.602 20.398-45.602 45.602v43.199l-387.6 0.003906v-43.203c0-25.199-20.398-45.602-45.602-45.602-25.199 0-45.602 20.398-45.602 45.602v43.199l-171.6 0.003906c-63.602 0-114 51.602-114 114v801.6c0 63.602 51.602 114 114 114l912-0.003906c63.602 0 114-51.602 114-114v-801.6c0-62.402-51.602-114-114-114zm-912 91.199h170.4v43.199c0 25.199 20.398 45.602 45.602 45.602 25.199 0 45.602-20.398 45.602-45.602v-43.199h386.4v43.199c0 25.199 20.398 45.602 45.602 45.602 25.199 0 45.602-20.398 45.602-45.602v-43.199h172.8c12 0 22.801 10.801 22.801 22.801v126h-957.6v-126c0-12 10.801-22.801 22.801-22.801zm912 847.2h-912c-12 0-22.801-10.801-22.801-22.801v-584.4h956.4v584.4c1.2031 12-9.5977 22.801-21.598 22.801z" fill="#18394a"/>
</svg>
