<?xml version="1.0" encoding="UTF-8"?>
<svg width="1200pt" height="1200pt" version="1.1" viewBox="0 0 1200 1200" xmlns="http://www.w3.org/2000/svg">
 <path d="m193.45 642h449.16c17.766 55.547 69.938 96 131.39 96s113.62-40.453 131.39-96h101.16c23.156 0 42-18.844 42-42s-18.844-42-42-42h-101.16c-17.766-55.547-69.938-96-131.39-96s-113.62 40.453-131.39 96h-449.16c-23.156 0-42 18.844-42 42s18.844 42 42 42zm580.55-96c29.766 0 54 24.234 54 54s-24.234 54-54 54-54-24.234-54-54 24.234-54 54-54z" fill="#18394a"/>
 <path d="m193.45 349.69h101.16c17.766 55.547 69.938 96 131.39 96 61.449 0 113.62-40.453 131.39-96h449.16c23.156 0 42-18.844 42-42s-18.844-42-42-42h-449.16c-17.766-55.547-69.938-96-131.39-96-61.449 0-113.62 40.453-131.39 96h-101.16c-23.156 0-42 18.844-42 42s18.844 42 42 42zm232.55-96c29.766 0 54 24.234 54 54s-24.234 54-54 54-54-24.234-54-54 24.234-54 54-54z" fill="#18394a"/>
 <path d="m1008.1 850.31h-449.29c-17.766-55.547-69.938-96-131.39-96-61.449 0-113.62 40.453-131.39 96h-101.16c-23.156 0-42 18.844-42 42s18.844 42 42 42h101.16c17.766 55.547 69.938 96 131.39 96 61.449 0 113.62-40.453 131.39-96h449.29c23.156 0 42-18.844 42-42s-18.844-42-42-42zm-580.69 96c-29.766 0-54-24.234-54-54s24.234-54 54-54 54 24.234 54 54-24.234 54-54 54z" fill="#18394a"/>
</svg>
