<?xml version="1.0" encoding="UTF-8"?>
<svg id="Layer_1" data-name="Layer 1" xmlns="http://www.w3.org/2000/svg" viewBox="0 0 95.82 90.75">
  <defs>
    <style>
      .cls-1 {
        fill: #6ec49e;
        fill-rule: evenodd;
      }

      .cls-2 {
        letter-spacing: .03em;
      }

      .cls-3 {
        letter-spacing: .05em;
      }

      .cls-4, .cls-5 {
        fill: #183a4a;
      }

      .cls-5 {
        font-family: TwCenMT-Bold, 'Tw Cen MT';
        font-size: 25.35px;
        font-weight: 700;
      }
    </style>
  </defs>
  <path class="cls-4" d="M89.86,17.33s-.03-.01-.04-.02c-.33-.18-1.66-.96-1.84-1.07-.91-.63-3.93-1.26-4.27-2.37-.17-.55-.43-1.29-.82-1.84-1.85-2.61-4.93-2.42-6.63-2.4-.66.01-1.21.22-1.31.25-1.47.41-2.43,1.13-2.78,1.38-.82.6-2.09,1.47-3.52,2.4-.2.7.72,1.89,1.11,2.34.89,1.04,2.56,2.8,3.72,2.67,1.62-.17.35-6.66,1.58-7.81.15-.14.47-.1.48.1.31,4.75,1.73,9.29.91,10.26-2.04,1.53-4.42-.36-5.53-1.68-.66-.78-1.2-1.32-1.85-2.12-.55-.68-1.26-1.59-2.06-2.7-2.18,1.4-4.42,2.78-5.78,3.54-1.62.9-4.8,2.58-9.18,3.45-3.57.72-6.78.33-10.39.27-1.86-.03-4.26-.15-6.75.28-2.49.43-7.21,1.66-9.04,2.41-3.17,1.29-5.83,3.61-5.04,3.96,2.72,1.19,11.34-4.8,10.44-2.23-.2.58-.74.96-1.17,1.36-.53.49-1.08,1.06-1.57,1.63-.52.6-1.06,1.19-1.55,1.82-.51.65-.94,1.35-1.34,2.07-.31.57-.59,1.14-.86,1.73-.57,1.22-1.08,2.46-1.73,3.64-1.08,1.94-2.47,4.14-4.22,5.54-.65.52-2.33,1.27-2.67,1.73-.49.66-1.1,2.34-1.6,3.19-1.19,2.02-5.18,7.53-4.1,9.78.41.86,3.28.74,3.89.15.93-.91-.02-2.48.03-3.41.33-6.18,8.69-8.73,12.84-11.66.85-.6,1.66-1.27,2.44-1.95.78-.68,1.54-1.38,2.32-2.06,1.55-1.36,1.63-1.24,2.36-1.9.12-.1.35-.27.82-.61.46-.33.64-.44.84-.4.15.03.25.13.49.44.34.46.51.69.69,1.06.37.79.5,1.62.53,2.12.07,1.59-1.04,3.41-2.4,4.88-.49.53-3.56,2.74-3.64,3.09-.08.32-.03.56.1.85l.23.57c1.36,3.21,3.33,6.09,5.4,8.86,1.8.54,5.59.04,3.91-2.53-.71-1.08-1.15-.53-2.13-.74-1.1-.24-2.72-2.29-2.61-4.29.14-2.64,3.17-3.52,6.47-8.02.55-.75,1.4-2,1.57-3.52.15-1.37.05-2.1.05-2.1-.09-.7-.29-1.38-.11-1.46.04-.02.1-.01.47.24.18.12.36.24.54.37.34.23.69.46,1.03.68.61.39,1.22.78,1.84,1.15.25.15.5.3.75.45,3.78,2.24,5.85,3.21,7.11,3.49.28.06.81.05.99.33.25.38.36.97.5,1.4.22.67.42,1.34.65,2,3.44,9.96,5.53,12.75,5.53,12.75,0,0,1.94.46,2.59.44.44-.02.86-.09,1.15-.18.39-.12.66-.49.66-.9v-1.09c0-.53-.53-.84-.97-.94-.27-.06-.61.05-.81.02-1.23-.15-1.58-2.73-2.62-6.97-.84-3.39-.8-4.31-.59-5.94.21-1.56.79-2.73,1.14-3.42.17-.34.34-.63.5-.88.06-.09.18-.11.27-.05,1.17.8,2.34,1.6,3.51,2.41.08.06.07.18-.02.23-1.24.56-2.22,1.11-2.95,1.55-.72.43-1.2.77-1.34,1.34-.09.37-.02.72.13,1.4.16.75.24,1.13.39,1.26.58.49,1.92-.62,6.24-3.44,1.12-.73,1.78-1.14,1.87-1.87.1-.79-.56-1.43-1.72-2.61-.79-.8-1.96-2.01-3.43-3.55-.04-.04-.04-.09-.01-.14.09-.13.17-.27.26-.42.51-.86,1.75-2.95,1.89-5.18.03-.41.17-1.32.45-3.15.04-.27.1-.65.31-1.11.25-.53.65-.95,1.19-1.47.35-.33,1.23-.65,1.67-.85,2.95-1.29,3.93-1.44,5.14-1.9.94-.36,1.48.86,2.29,1.07.65.17,1.68-.32,2.45-.44,1.38-.22,3.21-.08,4.47-.93.69-.47,3.1-3.55,1.82-4.07ZM67.41,34.85c-.89,1.26-2.69,3.07-3.46,4.43-1.31,2.31-1.39,4.51-1.43,5.09-.11,1.49.22,3.16.86,6.51.46,2.4.88,4.15.6,4.29-.13.07-.4.16-.76-.44-.9-1.49-1.01-1.84-1.14-2.1-.55-1.07-.93-1.92-1.2-2.5-.63-1.41-1.2-2.76-1.61-4.25-.11-.41-.22-.82-.34-1.24-.43-1.61-.6-1.94-.93-2.35-.67-.82-1.89-.38-3.69-1.24-2.76-1.32-4.3-2.38-4.97-2.87-.7-.5-1.23-.93-3.03-1.99-1.21-.71-1.39-.7-1.82-.92-.82-.43-2.18-.82-3.61-.69-3.44.32-6.6,2.13-9.16,4.36-2.21,1.94-4.26,3.99-6.93,5.44-.51.28-1.01.54-1.53.81-1.91,1-4.22,2.57-5.74,3.67-2.7,1.94-3.59,5.67-4,5.68-1.07.02,2.01-6.22,3.29-7.95.83-1.13,1.91-1.1,2.81-1.74,1.03-.73,2.12-2.07,2.77-2.92,1.7-2.22,2.52-4.09,3.67-6.48.45-.93,1.63-3.1,2.49-4.33.88-1.27,3.06-2.93,3.83-3.49,1.37-.97,3.18-2.12,6.68-2.94,1.12-.26,4.9-1,8.68.72.99.45,1.52.69,2.08,1.27,1.18,1.21,1.96,2.92,2.73,4.33,1.17,2.15,1.52,2.77,3.45,3.74,1.27.64,2.88.27,4.42-.48,1.71-.84,3.15-1.97,4.1-2.91,2.24-2.21,3.74-5.35,3.71-8.51-.04-3.68-2.06-6.43-1.97-6.48.1-.06,1.24,1.99,1.29,2.09,1.01,1.75,1.78,3.51,1.92,5.57.26,3.81,0,7.89-2.05,10.82ZM81.15,13.34c-.13.2-.28.41-.49.53-.18.1-.41.13-.62.13-.11,0-.21,0-.32-.02,0,0-.48-.03-.34-.31.07-.14.15-.26.24-.39.1-.14.2-.28.33-.4.31-.26.71-.33,1.1-.28.16.02.29.1.28.27,0,.16-.1.32-.19.45Z"/>
  <path class="cls-1" d="M20.43,62.2c1.27-.22,2.55-.43,3.84-.6,6.48-.9,13.63-1.38,21.45-1.42h0c9.68-.13,18.87.56,27.56,2.1,2.62.46,5.11.99,7.48,1.57,2.82.68,5.59,1.47,8.31,2.34v-.96l.33-2.41v-.07s.15-1.01.15-1.01c-.09.1-.18.19-.26.29-.08-.36-.18-.75-.32-1.23.27-.6.58-1.16.95-1.66v-.05c-.6.46-1.1,1.16-1.53,1.96-.04-.22-.09-.44-.16-.68.02.32.02.63.03.94-.09.19-.18.37-.27.56-.05-.41-.12-.82-.23-1.21,0,.53-.07,1.06-.17,1.59-.22-.38-.47-.73-.74-1.08-.04-.46-.11-.94-.21-1.42,0,.39-.02.77-.03,1.14-.07-.07-.13-.14-.2-.21-.03-.46-.1-.9-.2-1.35.26-.55,2.23-3.45,2.58-4-.37.32-2.39,3.07-2.7,3.48-.07-.24-.13-.48-.22-.74.03.32.06.63.08.94-.15.22-.28.44-.41.68-.25-.65-.59-1.28-1.02-1.88.33.84.59,1.66.76,2.44-.17.37-.32.78-.45,1.21-.02-.85-.16-1.74-.41-2.65.06,1.06.04,2.01-.06,2.9l-.08-.03c0-.97-.13-1.98-.42-3,.06,1.01.04,1.95-.05,2.8-.17-.09-.35-.17-.52-.26.11-.9.34-1.38.53-1.93-.43.39-.77.87-1.01,1.42v-.03c.36-.92.85-1.86,1.5-2.81-.65.58-1.2,1.23-1.64,1.93-.03-.14-.07-.29-.1-.43.22-.5.55-1.02,1.08-1.81-.55.5-.95.85-1.26,1.23-.04-.15-.1-.31-.16-.44.31-.67.71-1.35,1.18-2.05-.54.48-1.01,1.01-1.4,1.57-.1-.22-.22-.43-.35-.63.27-.53,2.86-3.81,3.7-4.91-1.52,1.18-3.57,4.13-3.92,4.57-.06-.1-.13-.19-.2-.29.04.12.09.24.14.37-.38.51-.72,1.06-.98,1.66-.03-.24-.09-.48-.15-.72.36-.94.87-1.91,1.54-2.9-.72.63-1.31,1.35-1.78,2.15-.26-.7-.62-1.36-1.09-1.98.36.9.61,1.78.77,2.61-.21.44-.38.89-.52,1.36.06-.97-.02-1.98-.24-3.04,0,1.19-.1,2.27-.28,3.23l-.05-.02c.16-1.19.1-2.46-.17-3.79,0,1.36-.13,2.56-.37,3.6l-.06-.02c.04-.94-.03-1.93-.25-2.94,0,.75-.04,1.45-.11,2.1-.12-.49-.27-.97-.48-1.42.32-.7.72-1.4,1.2-2.1-.55.48-1.03,1.03-1.43,1.61-.21-.39-.44-.75-.7-1.11.19.48.35.97.49,1.43-.04.07-.08.12-.12.19-.4-.84-.92-1.62-1.56-2.34.55,1.01.96,1.98,1.26,2.9-.15.32-.29.65-.41.97h-.02c-.02-.7-.09-1.42-.26-2.17,0,.74-.03,1.42-.1,2.07l-.13-.05c-.19-1.08-.57-2.12-1.16-3.11.31,1.04.5,2.01.59,2.95-.08-.03-.17-.05-.26-.09-.15-1.16-.43-2.25-.84-3.28.26-.58.57-1.14.91-1.72-.4.41-.76.85-1.08,1.32-.12-.26-.24-.51-.37-.75.14-.17.45-.44.83-.66-.55.07-.78.15-1.05.31-.21-.36-.45-.72-.71-1.06.18.41.35.8.5,1.21-.25.19-.5.39-.76.61-.02-.27-.07-.56-.11-.85,0,.34-.02.68-.03,1.01-.18.16-.36.32-.53.51-.03-.67-.09-1.33-.2-2.01-.02.84-.08,1.64-.16,2.39-.27.31-.55.61-.79.94.11-.92.29-1.89.55-2.95-.56,1.26-.94,2.53-1.14,3.77-.03.03-.04.07-.07.1l-.1-.02c.09-.72.24-1.47.45-2.27-.37.73-.65,1.47-.84,2.2h0c.07-.73.09-1.5.08-2.29.22-.27.47-.55.73-.82-.26.14-.5.31-.73.48-.03-.65-.08-1.31-.16-1.98-.02.77-.05,1.48-.1,2.18-.31.24-.59.51-.85.8.06-.31.14-.61.22-.94-.23.46-.43.92-.59,1.38-.11.14-.22.29-.32.45.08-.39.17-.8.27-1.23-.23.49-.44.97-.6,1.45-.01-.56-.05-1.11-.14-1.64.54-.99,1.22-1.98,2.03-3-.83.66-1.55,1.43-2.17,2.29-.02-.09-.03-.17-.06-.26.26-.5,2.44-3.93,2.76-4.44-.95.74-2.62,3.48-2.92,3.87-.23-.77-.5-1.35-.9-2.03.26.92.46,1.81.58,2.68-.32.46-.59.94-.84,1.47.09-.48.2-.96.32-1.47-.45.92-.78,1.83-.97,2.73h-.03c.03-1.33.25-2.85.66-4.56-.68,1.55-1.1,3.07-1.26,4.57l-.08.02c.08-.87.24-1.81.5-2.81-.31.6-.56,1.21-.73,1.81-.04-.31-.1-.61-.17-.9.32-.58.7-1.18,1.14-1.78-.49.37-.92.8-1.3,1.26-.26-.77-2.36-5.31-2.86-5.99.37.96,2.33,5.65,2.46,6.52-.08.14-.18.27-.26.41-.19-.48-.41-.94-.68-1.38l.02-.03-.02.02c-.09-.14-.18-.27-.27-.43.06.17.11.34.17.51-.09.07-.18.15-.27.22-.23-.55-.53-1.06-.89-1.55.24.63.43,1.25.57,1.84-.12.12-.24.24-.35.38-.25-.61-.57-1.19-.97-1.76.28.75.5,1.45.64,2.15-.09.12-.19.24-.27.36-.2-.41-.51-.84-.92-1.4.32.84.5,1.4.6,1.91-.06.1-.11.2-.16.31-.18-.55-.4-1.08-.68-1.59l.03-.66c-.03-.12-.08-.26-.11-.39.03.36.05.7.07,1.02-.13-.22-.27-.46-.43-.68.39,1.09.64,2.13.75,3.11l-.02.03c-.09-.6-.3-1.14-.62-1.64,0,.08,0,.17-.02.26-.08-.46-.2-.92-.35-1.4.08.75.1,1.45.09,2.12-.16-.48-.37-.94-.61-1.38.26-.72.59-1.45,1-2.2-.5.55-.93,1.13-1.27,1.74-.24-.36-.51-.72-.81-1.04.24.48.45.94.62,1.38-.03.07-.06.14-.09.21-.48-.79-1.08-1.52-1.78-2.18.64.96,1.15,1.88,1.54,2.78-.13.34-.23.68-.31,1.04-.09-.7-.25-1.43-.47-2.17.06.65.08,1.26.08,1.84-.29-.99-.75-1.93-1.39-2.78.44,1.08.74,2.1.9,3.07l-.07-.02c-.32-1.33-.82-2.54-1.5-3.65.2-.51.42-1.04.67-1.59-.32.41-.61.84-.87,1.26-.15-.21-.29-.43-.45-.63.5-.51,1.02-.96,1.52-1.33-.58.15-1.18.51-1.78,1.01-.13-.16-.26-.32-.41-.48.1.19.21.38.31.58-.29.24-.58.53-.85.82-.05-.27-.12-.56-.2-.84.03.34.04.66.06.99-.16.19-.32.38-.47.56-.09-.65-.22-1.31-.39-1.98.06.85.09,1.64.07,2.39-.17.24-.33.48-.49.7.03-.84.11-1.74.25-2.7-.39,1.19-.64,2.36-.74,3.5-.14.24-.27.46-.39.7.02-.79.09-1.62.23-2.51-.29.78-.5,1.55-.63,2.3,0-.75-.05-1.52-.15-2.3.2-.31.42-.6.65-.9-.25.17-.48.36-.69.55-.09-.63-.21-1.28-.35-1.95.06.77.09,1.48.1,2.17-.08.08-.16.17-.24.26.03-.34.09-.7.15-1.08-.19.48-.33.96-.45,1.43-.3.37-.58.78-.82,1.23.04-.39.09-.82.15-1.25-.19.51-.34,1.01-.46,1.5-.07-.56-.16-1.09-.3-1.62.44-1.02,1.02-2.1,1.73-3.19-.76.75-1.4,1.59-1.94,2.49-.03-.09-.05-.17-.08-.24.21-.53.45-1.06.73-1.6-.32.37-.61.79-.88,1.19-.3-.73-.68-1.43-1.15-2.08.36.89.64,1.76.84,2.61-.27.5-.5,1.01-.68,1.54.04-.48.09-.97.18-1.48-.38,1.02-.62,2.01-.72,2.99-.12-1.38-.06-2.97.2-4.76-.57,1.74-.84,3.43-.79,5.07h-.07c-.05-.96.02-2.03.21-3.23-.25.63-.44,1.25-.56,1.86-.07-.29-.15-.58-.26-.87.26-.61.58-1.25.97-1.89-.45.43-.84.9-1.17,1.4-.33-.75-2.26-4.27-2.83-4.9.45.9,2.27,4.61,2.49,5.46-.08.14-.15.29-.22.43-.23-.46-.5-.89-.81-1.32l.02-.03-.03.03c-.1-.13-.2-.27-.31-.41.08.17.15.32.22.5-.09.08-.16.15-.24.24-.28-.51-.63-1.01-1.03-1.47.3.61.55,1.21.74,1.79-.1.14-.21.27-.31.39-.3-.58-.68-1.13-1.14-1.64.36.72.64,1.4.84,2.08-.08.12-.16.26-.23.38-.25-.39-.59-.77-1.06-1.31.4.82.64,1.35.78,1.86-.05.1-.09.21-.13.31-.33-.77-.78-1.5-1.34-2.17.49,1.04.84,2.05,1.05,3.02l-.02.03c-.15-.6-.41-1.11-.78-1.57.02.46.02.9.02,1.35-.17-.74-.42-1.42-.73-2.07.25-.7.56-1.4.91-2.12-.45.51-.82,1.06-1.15,1.66-.2-.37-1.41-3.63-2.48-5.73,1.38,4.3,2.13,5.62,2.26,5.91-.16.12-.29.26-.44.41-.14-.27-.29-.53-.45-.8.03-.02.04-.05.07-.08-.03.02-.06.05-.08.07-.32-.51-.67-.99-1.06-1.45.3.56.57,1.11.81,1.66-.4.37-.74.85-1.03,1.38-.08-.27-.18-.55-.28-.82.06.37.1.73.13,1.09-.06.12-.41.99-.64,1.55v-.05c-.09-.7-.15-1.43-.2-2.2-.26.41-.82,1.83-1.07,2.66l-.15.02c-.07-1.5,1.59-5.49,2.16-7.08-.5.72-2.24,4.73-2.49,5.55-.05-.1-.11-.21-.17-.31.09-.51.28-1.08.61-1.91-.42.56-.72.99-.93,1.4-.08-.12-.17-.24-.26-.36.15-.7.35-1.4.64-2.15-.41.56-.73,1.14-.98,1.76-.11-.14-.22-.26-.34-.38.14-.6.32-1.21.57-1.84-.37.5-.66,1.01-.9,1.55-.08-.07-.17-.15-.26-.22.05-.17.11-.34.17-.51-.09.15-.19.29-.27.43l-.03-.02.02.03c-.26.45-.5.9-.67,1.38-.08-.13-.17-.27-.26-.41.13-.87,1.57-4.71,1.93-5.67-.5.7-2.07,4.37-2.33,5.14-.38-.46-.81-.89-1.3-1.26.45.6.84,1.19,1.15,1.78-.08.29-.13.6-.17.9-.19-.6-.44-1.21-.74-1.81.26,1.01.44,1.94.5,2.81l-.08-.02c-.15-1.5-.57-3.02-1.25-4.57.4,1.71.62,3.23.66,4.56h-.03c-.2-.9-.52-1.81-.97-2.73.14.51.24.99.32,1.47-.24-.53-.52-1.01-.84-1.47.13-.87.32-1.76.59-2.68-.4.68-.72,1.42-.95,2.18-.3-.39-.63-.77-.99-1.11.32.51.61,1.02.87,1.52-.02.08-.03.17-.05.26-.62-.85-1.35-1.62-2.18-2.29.82,1.02,1.49,2.01,2.03,3-.08.53-.13,1.07-.14,1.64-.16-.48-.37-.96-.61-1.45.1.43.2.84.27,1.23-.1-.16-.21-.31-.32-.45-.17-.46-.37-.92-.59-1.38.08.32.15.63.22.94-.26-.29-.55-.56-.85-.8-.05-.7-.08-1.42-.1-2.18-.08.66-.13,1.33-.16,1.98-.24-.17-.48-.34-.74-.48.27.27.5.55.73.82-.01.78,0,1.55.08,2.29h0c-.21-.73-.48-1.47-.85-2.2.21.8.36,1.55.45,2.27l-.09.02s-.05-.07-.08-.1c-.2-1.25-.58-2.51-1.13-3.77.25,1.06.43,2.03.54,2.95-.25-.32-.51-.63-.79-.94-.08-.75-.13-1.55-.16-2.39-.1.68-.17,1.35-.2,2.01-.16-.19-.34-.36-.52-.51-.02-.32-.03-.66-.04-1.01-.04.29-.08.58-.11.85-.25-.22-.5-.43-.76-.61.15-.41,2.3-4.85,2.48-5.26-1.13,1.5-2.53,4.69-2.76,5.05-.66-.46-1.25-.74-1.87-.84.57.34,1.09.72,1.66,1.21-.14.24-.19.53-.31.79-.32-.46-.69-.9-1.09-1.32.34.58.65,1.14.92,1.72-.43,1.02-.71,2.12-.85,3.28-.08.03-.17.05-.26.09.08-.94.28-1.91.59-2.95-.59.99-.97,2.03-1.15,3.11l-.13.05c-.08-.65-.11-1.33-.11-2.07-.15.75-.24,1.47-.26,2.17h-.02c-.12-.32-.25-.65-.4-.97.29-.92.72-1.89,1.26-2.9-.64.72-1.17,1.5-1.57,2.34-.03-.07-.08-.12-.11-.19.13-.46.29-.96.49-1.43-.26.36-.5.72-.7,1.11-.41-.58-.89-1.13-1.43-1.61.48.7.88,1.4,1.19,2.1-.2.45-.36.92-.47,1.42-.08-.65-.11-1.35-.12-2.1-.21,1.01-.29,2-.24,2.94l-.07.02c-.24-1.04-.36-2.24-.37-3.6-.27,1.33-.32,2.59-.16,3.79l-.05.02c-.19-.96-.28-2.03-.29-3.23-.21,1.06-.3,2.07-.24,3.04-.14-.48-.31-.92-.51-1.36.15-.84.4-1.71.76-2.63-.46.63-.83,1.3-1.09,2-.47-.8-2.82-4.93-4.16-6.13.67.99,3.57,5.94,3.92,6.88-.07.24-.12.48-.16.72-.26-.6-.59-1.14-.98-1.66.05-.14.09-.26.15-.37-.07.1-.13.19-.2.29-.34-.44-.73-.87-1.17-1.25.36.53.67,1.06.95,1.59-.12.21-.24.41-.35.63-.39-.56-.85-1.09-1.39-1.57.46.7.85,1.38,1.17,2.05-.06.14-.11.29-.16.44-.31-.37-.71-.73-1.26-1.23.53.79.85,1.31,1.08,1.81-.04.14-.08.29-.1.43-.45-.7-.99-1.35-1.64-1.93.64.96,1.14,1.89,1.5,2.81v.03c-.25-.55-.59-1.02-1.02-1.42.19.55.43,1.03.54,1.93-.18.09-.35.17-.53.26-.08-.85-.1-1.79-.05-2.8-.28,1.03-.42,2.03-.42,3l-.07.03c-.1-.89-.12-1.84-.07-2.9-.25.9-.38,1.79-.41,2.65-.13-.43-.27-.84-.44-1.21.17-.79.42-1.61.75-2.44-.43.6-.77,1.23-1.02,1.88-.13-.24-.26-.46-.41-.68.02-.31.05-.61.08-.94-.08.26-.15.5-.21.74-.31-.41-2.75-3.89-3.13-4.22.35.55,2.75,4.18,3,4.73-.09.44-.16.89-.21,1.35-.06.07-.13.14-.19.21-.03-.38-.03-.75-.03-1.14-.1.48-.17.96-.21,1.42-.27.34-.52.7-.74,1.08-.1-.53-.17-1.06-.18-1.59-.1.39-.18.8-.23,1.21-.08-.19-.17-.37-.26-.56,0-.31.02-.61.03-.94-.06.24-.11.46-.16.68-.42-.8-.92-1.5-1.53-1.96v.05c.37.5.68,1.06.95,1.66-.13.48-.23.87-.31,1.23-.09-.1-.18-.19-.26-.29l.13,1.01s.01.02.02.02c0,.02,0,.03,0,.05l.26,1.84c0,.41-.02.84,0,1.26,4.87-1.55,10.18-2.8,15.92-3.74Z"/>
  <text class="cls-5" transform="translate(3.73 85.95)"><tspan class="cls-2" x="0" y="0">J</tspan><tspan class="cls-3" x="11.68" y="0">ASPER</tspan></text>
</svg>