<?xml version="1.0" encoding="utf-8"?>
<!-- Generator: Adobe Illustrator 25.2.0, SVG Export Plug-In . SVG Version: 6.00 Build 0)  -->
<svg version="1.1" id="Layer_1" xmlns="http://www.w3.org/2000/svg" xmlns:xlink="http://www.w3.org/1999/xlink" x="0px" y="0px"
	 viewBox="0 0 994.7 994.7" style="enable-background:new 0 0 994.7 994.7;" xml:space="preserve">
<style type="text/css">
	.st0{fill:#18394A;}
</style>
<path class="st0" d="M820.8,93.9h-108v-36c0-19.9-16.1-36-36-36s-36,16.1-36,36v36h-288v-36c0-19.9-16.1-36-36-36s-36,16.1-36,36v36
	h-108c-59.5,0-108,48.4-108,108v648c0,59.6,48.5,108,108,108h648c59.5,0,108-48.4,108-108v-648C928.8,142.3,880.3,93.9,820.8,93.9z
	 M172.8,165.9h108v36c0,19.9,16.1,36,36,36s36-16.1,36-36v-36h288v36c0,19.9,16.1,36,36,36s36-16.1,36-36v-36h108
	c19.8,0,36,16.2,36,36v108h-720v-108C136.8,182.1,153,165.9,172.8,165.9z M820.8,885.9h-648c-19.8,0-36-16.2-36-36v-468h720v468
	C856.8,869.7,840.6,885.9,820.8,885.9z"/>
<path class="st0" d="M352.8,543.9c0,72-108,72-108,0S352.8,471.9,352.8,543.9"/>
<path class="st0" d="M352.8,723.9c0,72-108,72-108,0S352.8,651.9,352.8,723.9"/>
<path class="st0" d="M550.8,723.9c0,72-108,72-108,0S550.8,651.9,550.8,723.9"/>
<path class="st0" d="M550.8,543.9c0,72-108,72-108,0S550.8,471.9,550.8,543.9"/>
<path class="st0" d="M748.8,543.9c0,72-108,72-108,0S748.8,471.9,748.8,543.9"/>
</svg>
