<?xml version="1.0" encoding="UTF-8"?>
<svg width="1200pt" height="1200pt" version="1.1" viewBox="0 0 1200 1200" xmlns="http://www.w3.org/2000/svg">
 <path d="m363.84 600c0 49.707-40.293 90-90 90-49.707 0-90-40.293-90-90s40.293-90 90-90c49.707 0 90 40.293 90 90" fill="#18394a"/>
 <path d="m690 600c0 49.707-40.293 90-90 90s-90-40.293-90-90 40.293-90 90-90 90 40.293 90 90" fill="#18394a"/>
 <path d="m1016.2 600c0 49.707-40.293 90-90 90-49.707 0-90-40.293-90-90s40.293-90 90-90c49.707 0 90 40.293 90 90" fill="#18394a"/>
</svg>
