<?xml version="1.0" encoding="utf-8"?>
<!-- Generator: Adobe Illustrator 25.2.0, SVG Export Plug-In . SVG Version: 6.00 Build 0)  -->
<svg version="1.1" id="Layer_1" xmlns="http://www.w3.org/2000/svg" xmlns:xlink="http://www.w3.org/1999/xlink" x="0px" y="0px"
	 viewBox="0 0 994.7 994.7" style="enable-background:new 0 0 994.7 994.7;" xml:space="preserve">
<style type="text/css">
	.st0{fill:#18394A;}
	.st1{fill:#FFFFFF;}
</style>
<path class="st0" d="M820.8,93.9h-108v-36c0-19.9-16.1-36-36-36s-36,16.1-36,36v36h-288v-36c0-19.9-16.1-36-36-36s-36,16.1-36,36v36
	h-108c-59.5,0-108,48.4-108,108v648c0,59.6,48.5,108,108,108h648c59.5,0,108-48.4,108-108v-648C928.8,142.3,880.3,93.9,820.8,93.9z
	 M172.8,165.9h108v36c0,19.9,16.1,36,36,36s36-16.1,36-36v-36h288v36c0,19.9,16.1,36,36,36s36-16.1,36-36v-36h108
	c19.8,0,36,16.2,36,36v108h-720v-108C136.8,182.1,153,165.9,172.8,165.9z M820.8,885.9h-648c-19.8,0-36-16.2-36-36v-468h720v468
	C856.8,869.7,840.6,885.9,820.8,885.9z"/>
<path class="st0" d="M224.3,438.6h542.4c27.2,0,49.3,26,49.3,58.2v116.4c0,32.1-22.1,58.2-49.3,58.2H224.3
	c-27.2,0-49.3-26-49.3-58.2V496.8C175,464.6,197.1,438.6,224.3,438.6L224.3,438.6z"/>
<rect x="234.3" y="496.8" class="st1" width="519.4" height="116.4"/>
</svg>
