<?xml version="1.0" encoding="UTF-8"?>
<svg width="1200pt" height="1200pt" version="1.1" viewBox="0 0 1200 1200" xmlns="http://www.w3.org/2000/svg">
 <path d="m337.5 862.5h-37.5c-29.859 0-58.453-11.859-79.547-32.953s-32.953-49.688-32.953-79.547v-262.5c0-29.859 11.859-58.453 32.953-79.547s49.688-32.953 79.547-32.953h37.5v-112.5c0-20.719 16.781-37.5 37.5-37.5h450c20.719 0 37.5 16.781 37.5 37.5v112.5h37.5c29.859 0 58.453 11.859 79.547 32.953s32.953 49.688 32.953 79.547v262.5c0 29.859-11.859 58.453-32.953 79.547s-49.688 32.953-79.547 32.953h-37.5v112.5c0 20.719-16.781 37.5-37.5 37.5h-450c-20.719 0-37.5-16.781-37.5-37.5zm562.5-412.5h-600c-9.9375 0-19.5 3.9375-26.531 10.969s-10.969 16.594-10.969 26.531v262.5c0 9.9375 3.9375 19.5 10.969 26.531s16.594 10.969 26.531 10.969h37.5v-75c0-20.719 16.781-37.5 37.5-37.5h450c20.719 0 37.5 16.781 37.5 37.5v75h37.5c9.9375 0 19.5-3.9375 26.531-10.969s10.969-16.594 10.969-26.531v-262.5c0-9.9375-3.9375-19.5-10.969-26.531s-16.594-10.969-26.531-10.969zm-525 37.5c20.719 0 37.5 16.781 37.5 37.5s-16.781 37.5-37.5 37.5-37.5-16.781-37.5-37.5 16.781-37.5 37.5-37.5zm37.5 337.5v112.5h375v-187.5h-375zm375-450v-75h-375v75z" fill="#18394a" fill-rule="evenodd"/>
</svg>
