<?xml version="1.0" encoding="utf-8"?>
<!-- Generator: Adobe Illustrator 25.2.0, SVG Export Plug-In . SVG Version: 6.00 Build 0)  -->
<svg version="1.1" id="Layer_1" xmlns="http://www.w3.org/2000/svg" xmlns:xlink="http://www.w3.org/1999/xlink" x="0px" y="0px"
	 viewBox="0 0 1200 1200" style="enable-background:new 0 0 1200 1200;" xml:space="preserve">
<style type="text/css">
	.st0{fill:#8C8C8C;}
</style>
<path class="st0" d="M928.8,30H271.2C174,30,96,108,96,205.2v789.6c0,96,78,175.2,175.2,175.2H930c96,0,175.2-78,175.2-175.2V205.2
	C1104,108,1026,30,928.8,30L928.8,30z M1004.4,994.8c0,42-33.6,75.6-75.6,75.6l-657.6,0c-42,0-75.6-33.6-75.6-75.6l0-789.6
	c0-42,33.6-75.6,75.6-75.6H930c42,0,75.6,33.6,75.6,75.6l0,789.6L1004.4,994.8z"/>
<path class="st0" d="M398.4,310.8h-15.6c-27.6,0-50.4,22.8-50.4,50.4c0,27.6,22.8,50.4,50.4,50.4h15.6c27.6,0,50.4-22.8,50.4-50.4
	C448.8,333.6,426,310.8,398.4,310.8z"/>
<path class="st0" d="M398.4,549.6h-15.6c-27.6,0-50.4,22.8-50.4,50.4c0,27.6,22.8,50.4,50.4,50.4h15.6c27.6,0,50.4-22.8,50.4-50.4
	C448.8,572.4,426,549.6,398.4,549.6z"/>
<path class="st0" d="M398.4,788.4h-15.6c-27.6,0-50.4,22.8-50.4,50.4c0,27.6,22.8,50.4,50.4,50.4h15.6c27.6,0,50.4-22.8,50.4-50.4
	C448.8,811.2,426,788.4,398.4,788.4z"/>
<path class="st0" d="M818.4,310.8h-252c-27.6,0-50.4,22.8-50.4,50.4c0,27.6,22.8,50.4,50.4,50.4h252c27.6,0,50.4-22.8,50.4-50.4
	C868.8,333.6,846,310.8,818.4,310.8z"/>
<path class="st0" d="M818.4,549.6h-252c-27.6,0-50.4,22.8-50.4,50.4c0,27.6,22.8,50.4,50.4,50.4h252c27.6,0,50.4-22.8,50.4-50.4
	C868.8,572.4,846,549.6,818.4,549.6z"/>
<path class="st0" d="M818.4,788.4h-252c-27.6,0-50.4,22.8-50.4,50.4c0,27.6,22.8,50.4,50.4,50.4h252c27.6,0,50.4-22.8,50.4-50.4
	C868.8,811.2,846,788.4,818.4,788.4z"/>
</svg>
