<?xml version="1.0" encoding="utf-8"?>
<svg version="1.1" xmlns:xlink="http://www.w3.org/1999/xlink" width="15px" height="10px" xmlns="http://www.w3.org/2000/svg">
  <g transform="matrix(1 0 0 1 -355 -518 )">
    <path d="M 14.673549107142856 0.2890625000000002  C 14.891183035714285 0.3776041666666663  15 0.5312499999999998  15 0.7499999999999996  L 15 9.25  C 15 9.46875  14.891183035714285 9.622395833333334  14.673549107142856 9.7109375  C 14.601004464285715 9.736979166666666  14.531250000000002 9.75  14.464285714285715 9.75  C 14.313616071428573 9.75  14.188058035714286 9.700520833333334  14.087611607142856 9.6015625  L 10.714285714285715 6.453125  L 10.714285714285715 7.75  C 10.714285714285715 8.369791666666666  10.478515625 8.899739583333334  10.006975446428571 9.33984375  C 9.535435267857142 9.779947916666666  8.967633928571429 10  8.303571428571429 10  L 2.410714285714286 10  C 1.746651785714286 10  1.1788504464285716 9.779947916666666  0.7073102678571428 9.33984375  C 0.23577008928571427 8.899739583333334  0 8.369791666666666  0 7.75  L 0 2.25  C 0 1.6302083333333317  0.23577008928571427 1.1002604166666663  0.7073102678571428 0.6601562500000002  C 1.1788504464285716 0.22005208333333193  1.746651785714286 0  2.410714285714286 0  L 8.303571428571429 0  C 8.967633928571429 0  9.535435267857142 0.22005208333333193  10.006975446428571 0.6601562500000002  C 10.478515625 1.1002604166666663  10.714285714285715 1.6302083333333317  10.714285714285715 2.25  L 10.714285714285715 3.5390625  L 14.087611607142856 0.39843749999999956  C 14.188058035714286 0.2994791666666663  14.313616071428573 0.2500000000000002  14.464285714285715 0.2500000000000002  C 14.531250000000002 0.2500000000000002  14.601004464285715 0.2630208333333317  14.673549107142856 0.2890625000000002  Z " fill-rule="nonzero" fill="#666666" stroke="none" transform="matrix(1 0 0 1 355 518 )" />
  </g>
</svg>